<svg xmlns="http://www.w3.org/2000/svg" version="1.1" xmlns:xlink="http://www.w3.org/1999/xlink" xmlns:svgjs="http://svgjs.dev/svgjs" width="1500" height="969" viewBox="0 0 1500 969"><g transform="matrix(1,0,0,1,-0.9090909090909918,-16.65833271211625)"><svg viewBox="0 0 396 256" data-background-color="#ffffff" preserveAspectRatio="xMidYMid meet" height="969" width="1500" xmlns="http://www.w3.org/2000/svg" xmlns:xlink="http://www.w3.org/1999/xlink"><g id="tight-bounds" transform="matrix(1,0,0,1,0.2400000000000091,4.400963028175198)"><svg viewBox="0 0 395.52 247.2" height="247.2" width="395.52"><g><svg></svg></g><g><svg viewBox="0 0 395.52 247.2" height="247.2" width="395.52"><mask id="e10f9dd3-d1e1-4d00-872a-1af795e4d66c"><rect width="640" height="400" fill="white"></rect><g transform="matrix(1,0,0,1,126.073231712247,37.08)"><svg viewBox="0 0 143.373536575506 173.04" height="173.04" width="143.373536575506"><g><svg viewBox="0 0 143.373536575506 173.04" height="173.04" width="143.373536575506"><g><svg viewBox="0 0 143.373536575506 173.04" height="173.04" width="143.373536575506"><g><svg viewBox="0 0 143.373536575506 173.04" height="173.04" width="143.373536575506"><g id="SvgjsG4460"><svg viewBox="0 0 143.373536575506 173.04" height="173.04" width="143.373536575506" id="SvgjsSvg4459"><g><svg viewBox="0 0 143.373536575506 173.04" height="173.04" width="143.373536575506"><g transform="matrix(1,0,0,1,0,0)"><svg width="143.373536575506" viewBox="-1.85 -54.87857142857143 52.6 63.27754915744343" height="173.04" data-palette-color="#160078"><path d="M44.1-6.1L44.1-6.1Q45.15-7 45.95-6.83 46.75-6.65 46.75-5.3L46.75-5.3Q46.75-4.9 46.63-4.55 46.5-4.2 46.25-3.88 46-3.55 45.75-3.28 45.5-3 45.08-2.7 44.65-2.4 44.4-2.2 44.15-2 43.73-1.73 43.3-1.45 43.15-1.35L43.15-1.35Q41.5-0.2 39.6 0.55L39.6 0.55Q38.55 1.25 36.4 1.35L36.4 1.35Q35.7 1.4 35.1 1.35L35.1 1.35Q34.7 1.35 34.6 1.35L34.6 1.35Q31.15 1.25 29.4 0.28 27.65-0.7 23.3-4.85L23.3-4.85Q17.7-10.35 16.95-10L16.95-10Q16.3-9.75 14.78-7.48 13.25-5.2 13.25-4.4L13.25-4.4Q13.25-3.65 11.95-1.5L11.95-1.5Q10.6 0.5 10.15 2L10.15 2Q9.75 3.65 8.58 4.2 7.4 4.75 6.33 3.78 5.25 2.8 5.33 2 5.4 1.2 7-2.1L7-2.1Q8.35-5.05 8.33-5.95 8.3-6.85 6.75-6.85L6.75-6.85Q5.5-6.85 3.9-8.2L3.9-8.2Q2.75-9.05 2.45-9.73 2.15-10.4 2.15-11.8L2.15-11.8Q2.3-17.35 3.45-19.4L3.45-19.4Q3.95-20.3 4.65-20.48 5.35-20.65 8.3-20.45L8.3-20.45Q12.55-20.15 13.35-19.75L13.35-19.75Q15.55-18.9 17.8-22.48 20.05-26.05 20.05-30.3L20.05-30.3Q20.05-33.55 19.28-33.8 18.5-34.05 16.7-31.25L16.7-31.25Q15.3-29.15 13.6-28.55L13.6-28.55Q12.6-28.3 11.35-28.55 10.1-28.8 9.03-29.45 7.95-30.1 7.55-30.95L7.55-30.95Q7-32 7.15-34.45 7.3-36.9 7.95-38.6L7.95-38.6Q8.7-40.25 8.7-40.83 8.7-41.4 11.15-44.25L11.15-44.25Q13.45-46.9 15.7-48.45 17.95-50 21.05-50.65L21.05-50.65Q22.85-51.05 23.9-50.75L23.9-50.75Q25.65-50.25 26.55-48.15L26.55-48.15Q28.4-43.9 27.45-36.1L27.45-36.1Q27-32.4 26.4-31.85L26.4-31.85Q25.95-31.4 25.95-29.15L25.95-29.15Q25.95-27.35 24.65-24.6L24.65-24.6Q23.3-21.85 21.5-20L21.5-20Q19.8-18.2 20.6-17.35L20.6-17.35Q20.85-17.2 21.28-17.2 21.7-17.2 24.85-19.95L24.85-19.95Q28-22.7 31.65-26.35L31.65-26.35Q34.95-29.65 36.9-32.38 38.85-35.1 38.85-36.4L38.85-36.4Q39-37.65 39.4-38.35L39.4-38.35Q39.8-39 41.13-39 42.45-39 43.35-38.35L43.35-38.35Q44.65-37.4 43.38-34.27 42.1-31.15 38.9-27.4L38.9-27.4Q36.05-24.05 30.95-19.33 25.85-14.6 24.65-14.1L24.65-14.1Q23.3-13.7 23.73-12.15 24.15-10.6 26.2-8.55L26.2-8.55Q28.8-6.1 28.8-5.35L28.8-5.35Q28.8-4.7 29.95-3.65L29.95-3.65Q30.25-3.35 30.65-3.15 31.05-2.95 31.63-2.85 32.2-2.75 32.65-2.68 33.1-2.6 33.83-2.65 34.55-2.7 34.95-2.73 35.35-2.75 36.18-2.88 37-3 37.23-3.05 37.45-3.1 38.25-3.25L38.25-3.25 39.05-3.4Q39.8-3.55 40.45-3.8 41.1-4.05 41.78-4.48 42.45-4.9 42.88-5.2 43.3-5.5 44.1-6.1ZM15.7-37.05L15.7-37.05Q18.9-40.1 17.2-41.8L17.2-41.8Q16.45-42.55 15.5-42.5 14.55-42.45 14-41.8L14-41.8Q13.1-40.65 12.33-38.53 11.55-36.4 11.8-35.85L11.8-35.85Q12.55-33.85 15.7-37.05ZM9.47-12.43Q10.5-12.8 11.28-13.45 12.05-14.1 11.95-14.5L11.95-14.5Q11.7-15.25 10.28-15.33 8.85-15.4 8.2-14.75L8.2-14.75Q7.65-14.2 7.55-13.43 7.45-12.65 8.1-12.3L8.1-12.3Q8.45-12.05 9.47-12.43Z" opacity="1" transform="matrix(1,0,0,1,0,0)" fill="black" class="wordmark-text-0" id="SvgjsPath4458" stroke-width="7" stroke="black" stroke-linejoin="round"></path></svg></g></svg></g></svg></g></svg></g></svg></g></svg></g></svg></g></mask><g transform="matrix(1,0,0,1,126.073231712247,37.08)"><svg viewBox="0 0 143.373536575506 173.04" height="173.04" width="143.373536575506"><g><svg viewBox="0 0 143.373536575506 173.04" height="173.04" width="143.373536575506"><g><svg viewBox="0 0 143.373536575506 173.04" height="173.04" width="143.373536575506"><g><svg viewBox="0 0 143.373536575506 173.04" height="173.04" width="143.373536575506"><g id="textblocktransform"><svg viewBox="0 0 143.373536575506 173.04" height="173.04" width="143.373536575506" id="textblock"><g><svg viewBox="0 0 143.373536575506 173.04" height="173.04" width="143.373536575506"><g transform="matrix(1,0,0,1,0,0)"><svg width="143.373536575506" viewBox="-1.85 -54.87857142857143 52.6 63.27754915744343" height="173.04" data-palette-color="#160078"><path d="M44.1-6.1L44.1-6.1Q45.15-7 45.95-6.83 46.75-6.65 46.75-5.3L46.75-5.3Q46.75-4.9 46.63-4.55 46.5-4.2 46.25-3.88 46-3.55 45.75-3.28 45.5-3 45.08-2.7 44.65-2.4 44.4-2.2 44.15-2 43.73-1.73 43.3-1.45 43.15-1.35L43.15-1.35Q41.5-0.2 39.6 0.55L39.6 0.55Q38.55 1.25 36.4 1.35L36.4 1.35Q35.7 1.4 35.1 1.35L35.1 1.35Q34.7 1.35 34.6 1.35L34.6 1.35Q31.15 1.25 29.4 0.28 27.65-0.7 23.3-4.85L23.3-4.85Q17.7-10.35 16.95-10L16.95-10Q16.3-9.75 14.78-7.48 13.25-5.2 13.25-4.4L13.25-4.4Q13.25-3.65 11.95-1.5L11.95-1.5Q10.6 0.5 10.15 2L10.15 2Q9.75 3.65 8.58 4.2 7.4 4.75 6.33 3.78 5.25 2.8 5.33 2 5.4 1.2 7-2.1L7-2.1Q8.35-5.05 8.33-5.95 8.3-6.85 6.75-6.85L6.75-6.85Q5.5-6.85 3.9-8.2L3.9-8.2Q2.75-9.05 2.45-9.73 2.15-10.4 2.15-11.8L2.15-11.8Q2.3-17.35 3.45-19.4L3.45-19.4Q3.95-20.3 4.65-20.48 5.35-20.65 8.3-20.45L8.3-20.45Q12.55-20.15 13.35-19.75L13.35-19.75Q15.55-18.9 17.8-22.48 20.05-26.05 20.05-30.3L20.05-30.3Q20.05-33.55 19.28-33.8 18.5-34.05 16.7-31.25L16.7-31.25Q15.3-29.15 13.6-28.55L13.6-28.55Q12.6-28.3 11.35-28.55 10.1-28.8 9.03-29.45 7.95-30.1 7.55-30.95L7.55-30.95Q7-32 7.15-34.45 7.3-36.9 7.95-38.6L7.95-38.6Q8.7-40.25 8.7-40.83 8.7-41.4 11.15-44.25L11.15-44.25Q13.45-46.9 15.7-48.45 17.95-50 21.05-50.65L21.05-50.65Q22.85-51.05 23.9-50.75L23.9-50.75Q25.65-50.25 26.55-48.15L26.55-48.15Q28.4-43.9 27.45-36.1L27.45-36.1Q27-32.4 26.4-31.85L26.4-31.85Q25.95-31.4 25.95-29.15L25.95-29.15Q25.95-27.35 24.65-24.6L24.65-24.6Q23.3-21.85 21.5-20L21.5-20Q19.8-18.2 20.6-17.35L20.6-17.35Q20.85-17.2 21.28-17.2 21.7-17.2 24.85-19.95L24.85-19.95Q28-22.7 31.65-26.35L31.65-26.35Q34.95-29.65 36.9-32.38 38.85-35.1 38.85-36.4L38.85-36.4Q39-37.65 39.4-38.35L39.4-38.35Q39.8-39 41.13-39 42.45-39 43.35-38.35L43.35-38.35Q44.65-37.4 43.38-34.27 42.1-31.15 38.9-27.4L38.9-27.4Q36.05-24.05 30.95-19.33 25.85-14.6 24.65-14.1L24.65-14.1Q23.3-13.7 23.73-12.15 24.15-10.6 26.2-8.55L26.2-8.55Q28.8-6.1 28.8-5.35L28.8-5.35Q28.8-4.7 29.95-3.65L29.95-3.65Q30.25-3.35 30.65-3.15 31.05-2.95 31.63-2.85 32.2-2.75 32.65-2.68 33.1-2.6 33.83-2.65 34.55-2.7 34.95-2.73 35.35-2.75 36.18-2.88 37-3 37.23-3.05 37.45-3.1 38.25-3.25L38.25-3.25 39.05-3.4Q39.8-3.55 40.45-3.8 41.1-4.05 41.78-4.48 42.45-4.9 42.88-5.2 43.3-5.5 44.1-6.1ZM15.7-37.05L15.7-37.05Q18.9-40.1 17.2-41.8L17.2-41.8Q16.45-42.55 15.5-42.5 14.55-42.45 14-41.8L14-41.8Q13.1-40.65 12.33-38.53 11.55-36.4 11.8-35.85L11.8-35.85Q12.55-33.85 15.7-37.05ZM9.47-12.43Q10.5-12.8 11.28-13.45 12.05-14.1 11.95-14.5L11.95-14.5Q11.7-15.25 10.28-15.33 8.85-15.4 8.2-14.75L8.2-14.75Q7.65-14.2 7.55-13.43 7.45-12.65 8.1-12.3L8.1-12.3Q8.45-12.05 9.47-12.43Z" opacity="1" transform="matrix(1,0,0,1,0,0)" fill="#160078" class="wordmark-text-0" data-fill-palette-color="primary" id="text-0"></path></svg></g></svg></g></svg></g></svg></g></svg></g></svg></g></svg></g><g mask="url(#e10f9dd3-d1e1-4d00-872a-1af795e4d66c)"><g transform="matrix(2.7244444444444444, 0, 0, 2.7244444444444444, 120.60373333333334, 1)"><svg xmlns="http://www.w3.org/2000/svg" xmlns:sodipodi="http://sodipodi.sourceforge.net/DTD/sodipodi-0.dtd" viewBox="21.68 5 56.63999999999999 90" x="0" y="0" height="90" width="56.63999999999999" class="icon-none" data-fill-palette-color="accent" id="none"><path d="M21.68 53.547V85.864A9.136 9.136 0 0 0 30.816 95H69.186A9.136 9.136 0 0 0 78.32 85.864V53.547H75.58V85.864A6.395 6.395 0 0 1 69.185 92.26H30.815A6.395 6.395 0 0 1 24.422 85.864V53.547z" color="#73b8f4" fill="#73b8f4" data-fill-palette-color="accent"></path><path d="M29.445 61.883V66.451H70.555V61.883z" color="#73b8f4" fill="#73b8f4" data-fill-palette-color="accent"></path><path d="M29.445 70.105V74.673H70.555V70.105z" color="#73b8f4" fill="#73b8f4" data-fill-palette-color="accent"></path><path d="M29.445 78.328V82.895H55.938V78.328z" color="#73b8f4" fill="#73b8f4" data-fill-palette-color="accent"></path><path d="M21.68 42.798V14.136A9.136 9.136 0 0 1 30.816 5H69.186A9.136 9.136 0 0 1 78.32 14.136V42.798H75.58V14.136A6.395 6.395 0 0 0 69.185 7.74H30.815A6.395 6.395 0 0 0 24.422 14.136V42.798z" color="#73b8f4" fill="#73b8f4" data-fill-palette-color="accent"></path><path d="M50 56.668L42.991 49.66 45.203 47.472 48.46 50.73V39.08H51.566V50.704L54.798 47.472 57.009 49.66z" color="#73b8f4" fill="#73b8f4" data-fill-palette-color="accent"></path></svg></g></g></svg></g><defs></defs></svg><rect width="395.52" height="247.2" fill="none" stroke="none" visibility="hidden"></rect></g></svg></g></svg>